<svg width="19" height="20" viewBox="0 0 19 20" fill="none" xmlns="http://www.w3.org/2000/svg">
<path d="M1.58329 19.1663C1.34018 19.1663 1.10702 19.0698 0.935112 18.8979C0.763203 18.7259 0.666626 18.4928 0.666626 18.2497V1.74967C0.666626 1.50656 0.763203 1.2734 0.935112 1.10149C1.10702 0.929585 1.34018 0.833008 1.58329 0.833008H14.4166C14.6597 0.833008 14.8929 0.929585 15.0648 1.10149C15.2367 1.2734 15.3333 1.50656 15.3333 1.74967V4.49967H13.5V2.66634H2.49996V17.333H13.5V15.4997H15.3333V18.2497C15.3333 18.4928 15.2367 18.7259 15.0648 18.8979C14.8929 19.0698 14.6597 19.1663 14.4166 19.1663H1.58329ZM13.5 13.6663V10.9163H7.08329V9.08301H13.5V6.33301L18.0833 9.99967L13.5 13.6663Z" fill="#9199B1"/>
</svg>
