<svg width="18" height="19" viewBox="0 0 18 19" fill="none" xmlns="http://www.w3.org/2000/svg">
<path d="M11.2641 15.1728V18.169H6.75848V15.1728C8.21106 15.717 9.81157 15.717 11.2641 15.1728Z" fill="#9199B1"/>
<path d="M11.2641 0V2.99626C9.81426 2.43731 8.20836 2.43731 6.75848 2.99626V0H11.2641Z" fill="#9199B1"/>
<path d="M4.85484 4.04382C3.63461 5.02771 2.83017 6.43548 2.60201 7.98627L0 6.48815L2.25283 2.5457L4.85484 4.04382Z" fill="#9199B1"/>
<path d="M18 11.6359L15.7472 15.5896L13.1451 14.0914C14.3704 13.107 15.1757 11.6937 15.398 10.1377L18 11.6359Z" fill="#9199B1"/>
<path d="M4.85484 14.0914L2.25283 15.5896L0 11.6359L2.60201 10.1377C2.82424 11.6937 3.62955 13.107 4.85484 14.0914Z" fill="#9199B1"/>
<path d="M18 6.48815L15.398 7.98627C15.1698 6.43548 14.3654 5.02771 13.1451 4.04382L15.7472 2.5457L18 6.48815Z" fill="#9199B1"/>
<path d="M15.8597 8.20026C15.8745 8.09565 15.8745 7.98948 15.8597 7.88486C15.6184 6.2176 14.7478 4.70606 13.4266 3.66081C13.366 3.58911 13.2936 3.52817 13.2126 3.48058C12.7563 3.11676 12.2473 2.82432 11.7032 2.61325L11.4329 2.50061C9.86367 1.91522 8.136 1.91522 6.56678 2.50061L6.29645 2.61325C5.7559 2.82456 5.2507 3.11702 4.7983 3.48058C4.71579 3.53075 4.6401 3.59133 4.57304 3.66081C3.25627 4.70983 2.3867 6.2195 2.13998 7.88486C2.13998 7.97498 2.13996 8.07635 2.08364 8.16647C2.00858 8.73849 2.00858 9.31786 2.08364 9.88988C2.08364 9.97999 2.08366 10.0926 2.13998 10.1827C2.3867 11.8481 3.25627 13.3578 4.57304 14.4068C4.63862 14.4768 4.71023 14.5409 4.78706 14.5983C5.24736 14.9563 5.75539 15.2482 6.29645 15.4656L6.56678 15.567C8.13255 16.1712 9.86712 16.1712 11.4329 15.567L11.7032 15.4656C12.2466 15.2458 12.7581 14.9541 13.2239 14.5983C13.2991 14.5431 13.3672 14.4788 13.4266 14.4068C14.7478 13.3616 15.6184 11.85 15.8597 10.1827C15.8893 10.0875 15.9082 9.98929 15.916 9.88988C15.9664 9.60741 15.9891 9.32068 15.9836 9.0338C15.9688 8.75265 15.9273 8.47355 15.8597 8.20026ZM11.4892 10.4531L11.3766 10.6446C11.1263 11.0443 10.7819 11.3765 10.3734 11.6122C9.96494 11.8478 9.50491 11.9797 9.03363 11.9963H8.85339C8.38211 11.9797 7.92209 11.8478 7.51361 11.6122C7.10514 11.3765 6.7607 11.0443 6.51047 10.6446C6.46705 10.5844 6.42934 10.5203 6.39782 10.4531C6.18036 10.0399 6.06814 9.57953 6.07115 9.11265C6.06814 8.64218 6.1803 8.17813 6.39782 7.76096C6.4296 7.69747 6.46733 7.63713 6.51047 7.58074C6.7598 7.18108 7.1043 6.84945 7.51317 6.61553C7.92203 6.38161 8.3825 6.25269 8.85339 6.2403H9.10121C9.5721 6.25269 10.0326 6.38161 10.4414 6.61553C10.8503 6.84945 11.1948 7.18108 11.4441 7.58074C11.4441 7.64832 11.523 7.70464 11.5568 7.76096C11.7725 8.1793 11.8882 8.64201 11.8947 9.11265C11.8747 9.56624 11.7514 10.0093 11.5343 10.408L11.4892 10.4531Z" fill="#5A6689"/>
</svg>
